<svg width="22" height="27" viewBox="0 0 22 27" fill="none" xmlns="http://www.w3.org/2000/svg">
<path d="M18.0228 14.361C18.0488 12.3438 19.1321 10.4351 20.8507 9.3785C19.7665 7.83011 17.9505 6.84839 16.0613 6.78928C14.0462 6.57777 12.0926 7.99508 11.0658 7.99508C10.0191 7.99508 8.43805 6.81028 6.73558 6.84531C4.51647 6.917 2.44771 8.17866 1.36807 10.1188C-0.952726 14.1369 0.778381 20.0421 3.00151 23.29C4.11379 24.8805 5.41373 26.657 7.11467 26.594C8.77914 26.525 9.40079 25.5326 11.41 25.5326C13.4005 25.5326 13.9837 26.594 15.7192 26.554C17.5052 26.525 18.6305 24.9565 19.7038 23.351C20.5029 22.2178 21.1179 20.9653 21.5259 19.64C19.4269 18.7522 18.0252 16.6399 18.0228 14.361Z" fill="white"/>
<path d="M14.7448 4.65328C15.7186 3.48423 16.1984 1.98162 16.0822 0.464539C14.5944 0.620803 13.2201 1.33187 12.2331 2.45607C11.268 3.55447 10.7657 5.03064 10.8607 6.48974C12.349 6.50506 13.8121 5.81327 14.7448 4.65328Z" fill="white"/>
</svg>
