<svg width="40" height="41" viewBox="0 0 40 41" fill="none" xmlns="http://www.w3.org/2000/svg">
<path d="M13.3335 4.24747V9.24747" stroke="#20BEB8" stroke-width="2.6" stroke-miterlimit="10" stroke-linecap="round" stroke-linejoin="round"/>
<path d="M26.6665 4.24747V9.24747" stroke="#20BEB8" stroke-width="2.6" stroke-miterlimit="10" stroke-linecap="round" stroke-linejoin="round"/>
<path d="M5.8335 16.0641H34.1668" stroke="#20BEB8" stroke-width="2.6" stroke-miterlimit="10" stroke-linecap="round" stroke-linejoin="round"/>
<path d="M36.6668 32.5808C36.6668 33.8308 36.3168 35.0141 35.7002 36.0141C34.5502 37.9475 32.4335 39.2475 30.0002 39.2475C28.3168 39.2475 26.7835 38.6308 25.6168 37.5808C25.1002 37.1475 24.6502 36.6141 24.3002 36.0141C23.6835 35.0141 23.3335 33.8308 23.3335 32.5808C23.3335 28.8975 26.3168 25.9141 30.0002 25.9141C32.0002 25.9141 33.7835 26.7974 35.0002 28.1808C36.0335 29.3641 36.6668 30.8975 36.6668 32.5808Z" fill="#20BEB8" fill-opacity="0.2" stroke="#20BEB8" stroke-width="2.6" stroke-miterlimit="10" stroke-linecap="round" stroke-linejoin="round"/>
<path d="M27.4004 32.5808L29.0504 34.2308L32.6004 30.9474" stroke="#20BEB8" stroke-width="2.6" stroke-linecap="round" stroke-linejoin="round"/>
<path d="M35 15.0808V28.1808C33.7833 26.7974 32 25.9141 30 25.9141C26.3167 25.9141 23.3333 28.8975 23.3333 32.5808C23.3333 33.8308 23.6833 35.0141 24.3 36.0141C24.65 36.6141 25.1 37.1475 25.6167 37.5808H13.3333C7.5 37.5808 5 34.2475 5 29.2475V15.0808C5 10.0808 7.5 6.74747 13.3333 6.74747H26.6667C32.5 6.74747 35 10.0808 35 15.0808Z" stroke="#20BEB8" stroke-width="2.6" stroke-miterlimit="10" stroke-linecap="round" stroke-linejoin="round"/>
<path d="M19.9926 23.7475H20.0076" stroke="#20BEB8" stroke-width="3" stroke-linecap="round" stroke-linejoin="round"/>
<path d="M13.8237 23.7475H13.8387" stroke="#20BEB8" stroke-width="3" stroke-linecap="round" stroke-linejoin="round"/>
<path d="M13.8237 28.7475H13.8387" stroke="#20BEB8" stroke-width="3" stroke-linecap="round" stroke-linejoin="round"/>
</svg>
