<svg width="40" height="41" viewBox="0 0 40 41" fill="none" xmlns="http://www.w3.org/2000/svg">
<ellipse cx="28.3333" cy="32.5806" rx="3.33333" ry="3.33333" fill="#7250E2" fill-opacity="0.3" stroke="#7250E2" stroke-width="2.6"/>
<ellipse cx="11.6666" cy="32.5806" rx="3.33333" ry="3.33333" fill="#7250E2" fill-opacity="0.3" stroke="#7250E2" stroke-width="2.6"/>
<path d="M3.33325 15.9143V24.1594C3.33325 28.1294 3.33325 30.1144 4.55364 31.3477C5.36509 32.1677 6.50538 32.4425 8.33325 32.5346M20.7117 9.24768C22.2339 9.74751 23.4273 10.9536 23.9219 12.4919C24.1666 13.253 24.1666 14.1936 24.1666 16.0746C24.1666 17.3286 24.1666 17.9556 24.3297 18.463C24.6595 19.4886 25.4551 20.2926 26.4699 20.6258C26.972 20.7907 27.5924 20.7907 28.8333 20.7907H36.6666V24.1594C36.6666 28.1294 36.6666 30.1144 35.4462 31.3477C34.6347 32.1677 33.4945 32.4425 31.6666 32.5346M14.9999 32.581H24.9999" stroke="#7250E2" stroke-width="2.6" stroke-linecap="round" stroke-linejoin="round"/>
<path d="M24.1665 12.5806H27.2019C29.6274 12.5806 30.8402 12.5806 31.8272 13.1701C32.8142 13.7596 33.3892 14.8275 34.5391 16.9631L36.6665 20.9139" stroke="#7250E2" stroke-width="2.6" stroke-linecap="round" stroke-linejoin="round"/>
<path d="M12.2107 14.2477L14.6883 12.2907C16.0071 11.249 16.6665 10.7282 16.6665 10.081M12.2107 5.91434L14.6883 7.8713C16.0071 8.91296 16.6665 9.4338 16.6665 10.081M16.6665 10.081L3.33317 10.081" stroke="#7250E2" stroke-width="2.6" stroke-linecap="round" stroke-linejoin="round"/>
</svg>
