<svg width="29" height="32" viewBox="0 0 29 32" fill="none" xmlns="http://www.w3.org/2000/svg">
<g filter="url(#filter0_ii_7_10)">
<path d="M1.19229 1.04561C0.843953 1.41521 0.638061 1.98881 0.638061 2.73161V29.2708C0.638061 30.0148 0.843953 30.5872 1.19229 30.9568L1.28087 31.0432L16.111 16.1764V16.0012V15.826L1.28087 0.958008L1.19229 1.04561Z" fill="url(#paint0_linear_7_10)"/>
<path d="M21.0535 21.1337L16.111 16.1765V16.0013V15.8261L21.0547 10.8701L21.166 10.9337L27.0231 14.2697C28.6954 15.2225 28.6954 16.7813 27.0231 17.7353L21.166 21.0713L21.0535 21.1337Z" fill="url(#paint1_linear_7_10)"/>
<g filter="url(#filter1_i_7_10)">
<path d="M21.166 21.07L16.1098 16.0012L1.19229 30.9568C1.74293 31.5424 2.65387 31.6144 3.67973 31.0312L21.166 21.07Z" fill="url(#paint2_linear_7_10)"/>
</g>
<path d="M21.166 10.9324L3.67973 0.972443C2.65387 0.388043 1.74293 0.461243 1.19229 1.04684L16.111 16.0024L21.166 10.9324Z" fill="url(#paint3_linear_7_10)"/>
</g>
<defs>
<filter id="filter0_ii_7_10" x="0.638062" y="0.569153" width="27.6393" height="30.8649" filterUnits="userSpaceOnUse" color-interpolation-filters="sRGB">
<feFlood flood-opacity="0" result="BackgroundImageFix"/>
<feBlend mode="normal" in="SourceGraphic" in2="BackgroundImageFix" result="shape"/>
<feColorMatrix in="SourceAlpha" type="matrix" values="0 0 0 0 0 0 0 0 0 0 0 0 0 0 0 0 0 0 127 0" result="hardAlpha"/>
<feOffset dy="-0.0868657"/>
<feComposite in2="hardAlpha" operator="arithmetic" k2="-1" k3="1"/>
<feColorMatrix type="matrix" values="0 0 0 0 0 0 0 0 0 0 0 0 0 0 0 0 0 0 0.12 0"/>
<feBlend mode="normal" in2="shape" result="effect1_innerShadow_7_10"/>
<feColorMatrix in="SourceAlpha" type="matrix" values="0 0 0 0 0 0 0 0 0 0 0 0 0 0 0 0 0 0 127 0" result="hardAlpha"/>
<feOffset dy="0.0868657"/>
<feComposite in2="hardAlpha" operator="arithmetic" k2="-1" k3="1"/>
<feColorMatrix type="matrix" values="0 0 0 0 1 0 0 0 0 1 0 0 0 0 1 0 0 0 0.25 0"/>
<feBlend mode="normal" in2="effect1_innerShadow_7_10" result="effect2_innerShadow_7_10"/>
</filter>
<filter id="filter1_i_7_10" x="1.19229" y="16.0012" width="19.9738" height="15.4328" filterUnits="userSpaceOnUse" color-interpolation-filters="sRGB">
<feFlood flood-opacity="0" result="BackgroundImageFix"/>
<feBlend mode="normal" in="SourceGraphic" in2="BackgroundImageFix" result="shape"/>
<feColorMatrix in="SourceAlpha" type="matrix" values="0 0 0 0 0 0 0 0 0 0 0 0 0 0 0 0 0 0 127 0" result="hardAlpha"/>
<feOffset dy="-0.0868657"/>
<feComposite in2="hardAlpha" operator="arithmetic" k2="-1" k3="1"/>
<feColorMatrix type="matrix" values="0 0 0 0 0 0 0 0 0 0 0 0 0 0 0 0 0 0 0.08 0"/>
<feBlend mode="normal" in2="shape" result="effect1_innerShadow_7_10"/>
</filter>
<linearGradient id="paint0_linear_7_10" x1="14.7964" y1="2.45081" x2="-5.34196" y2="22.5394" gradientUnits="userSpaceOnUse">
<stop stop-color="#00A0FF"/>
<stop offset="0.0066" stop-color="#00A1FF"/>
<stop offset="0.2601" stop-color="#00BEFF"/>
<stop offset="0.5122" stop-color="#00D2FF"/>
<stop offset="0.7604" stop-color="#00DFFF"/>
<stop offset="1" stop-color="#00E3FF"/>
</linearGradient>
<linearGradient id="paint1_linear_7_10" x1="29.2" y1="16.0013" x2="0.236581" y2="16.0013" gradientUnits="userSpaceOnUse">
<stop stop-color="#FFE000"/>
<stop offset="0.4087" stop-color="#FFBD00"/>
<stop offset="0.7754" stop-color="#FFA500"/>
<stop offset="1" stop-color="#FF9C00"/>
</linearGradient>
<linearGradient id="paint2_linear_7_10" x1="18.4202" y1="18.7539" x2="-8.88995" y2="45.9966" gradientUnits="userSpaceOnUse">
<stop stop-color="#FF3A44"/>
<stop offset="1" stop-color="#C31162"/>
</linearGradient>
<linearGradient id="paint3_linear_7_10" x1="-2.56473" y1="-7.7878" x2="9.62999" y2="4.37682" gradientUnits="userSpaceOnUse">
<stop stop-color="#32A071"/>
<stop offset="0.0685" stop-color="#2DA771"/>
<stop offset="0.4762" stop-color="#15CF74"/>
<stop offset="0.8009" stop-color="#06E775"/>
<stop offset="1" stop-color="#00F076"/>
</linearGradient>
</defs>
</svg>
