<svg width="48" height="48" viewBox="0 0 48 48" fill="none" xmlns="http://www.w3.org/2000/svg">
<path d="M28.6666 8.22705C29.7081 7.85895 30.2539 6.71631 29.8858 5.67487C29.5177 4.63344 28.3751 4.08759 27.3336 4.45569C24.2292 5.55296 22.0001 8.51358 22.0001 12L22 18.2751C21.9992 19.8659 21.9985 21.0472 22.2727 22.0705C23.0125 24.8312 25.1688 26.9876 27.9296 27.7274C28.5445 27.8921 29.2165 27.9577 30.0001 27.9835V32.0001C30.0001 33.9545 29.9904 34.6397 29.8848 35.1706C29.4114 37.5507 27.5508 39.4113 25.1707 39.8848C24.6398 39.9904 23.9546 40.0001 22.0001 40.0001C20.0457 40.0001 19.3605 39.9904 18.8296 39.8848C16.4494 39.4113 14.5889 37.5507 14.1154 35.1706C14.0098 34.6397 14.0001 33.9545 14.0001 32.0001V24.0001C14.0001 23.9432 13.9978 23.8868 13.9931 23.8312C16.0404 23.3043 17.6041 21.6063 17.9359 19.4855C18.001 19.0698 18.0006 18.6112 18.0002 18.1188L18.0001 18.0001L18.0002 17.8814C18.0006 17.3889 18.001 16.9304 17.9359 16.5146C17.5772 14.2217 15.7785 12.423 13.4856 12.0642C13.0698 11.9992 12.6113 11.9996 12.1188 12L12.0001 12.0001L11.8815 12C11.389 11.9996 10.9304 11.9992 10.5147 12.0642C8.22175 12.423 6.42306 14.2217 6.06431 16.5146C5.99927 16.9304 5.99965 17.3889 6.00007 17.8814L6.00013 18.0001L6.00007 18.1187C5.99965 18.6112 5.99927 19.0698 6.06431 19.4855C6.39613 21.6063 7.95986 23.3043 10.0072 23.8312C10.0025 23.8868 10.0001 23.9432 10.0001 24.0001L10.0001 32.2316C9.99969 33.8668 9.99941 34.9814 10.1923 35.951C10.9813 39.9179 14.0823 43.0188 18.0492 43.8079C19.0188 44.0008 20.1334 44.0005 21.7686 44.0001H22.2316C23.8669 44.0005 24.9814 44.0008 25.951 43.8079C29.9179 43.0188 33.0189 39.9179 33.808 35.951C34.0009 34.9814 34.0006 33.8668 34.0002 32.2316L34.0001 27.9835C34.7838 27.9577 35.4558 27.8921 36.0707 27.7274C38.8314 26.9876 40.9878 24.8312 41.7275 22.0705C42.0017 21.0472 42.0011 19.8659 42.0002 18.2751L42.0001 12C42.0001 8.51358 39.7711 5.55296 36.6666 4.45569C35.6252 4.08759 34.4825 4.63344 34.1145 5.67487C33.7464 6.71631 34.2922 7.85895 35.3336 8.22705C36.8899 8.77711 38.0001 10.2615 38.0001 12V18C38.0001 19.9887 37.983 20.5907 37.8638 21.0352C37.494 22.4156 36.4158 23.4938 35.0354 23.8637C34.5909 23.9828 33.9888 24 32.0001 24C30.0114 24 29.4094 23.9828 28.9649 23.8637C27.5845 23.4938 26.5063 22.4156 26.1364 21.0352C26.0173 20.5907 26.0001 19.9887 26.0001 18V12C26.0001 10.2615 27.1103 8.77711 28.6666 8.22705Z" fill="#1CABA5"/>
</svg>
