<svg width="48" height="48" viewBox="0 0 48 48" fill="none" xmlns="http://www.w3.org/2000/svg">
<path fill-rule="evenodd" clip-rule="evenodd" d="M14.4567 11.7039C14.8324 10.7971 15.4207 10.0052 16.1615 9.38853C16.788 12.0328 19.1642 14 22 14H26C28.8358 14 31.2121 12.0327 31.8385 9.38844C33.017 10.37 33.8119 11.7951 33.9711 13.4119C34.0794 14.5112 35.0583 15.3145 36.1575 15.2063C37.2568 15.098 38.0601 14.1191 37.9518 13.0198C37.4842 8.27208 33.7279 4.51579 28.9802 4.04817C28.4894 3.99984 27.933 3.99991 27.1157 4.00001L23.929 4.00002C22.1255 4 20.6706 3.99999 19.4866 4.08078C18.2691 4.16385 17.1926 4.33897 16.1732 4.76122C13.7229 5.77616 11.7761 7.7229 10.7612 10.1732C10.339 11.1926 10.1638 12.2691 10.0808 13.4866C9.99998 14.6706 9.99999 16.1255 10 17.929V30.071C9.99999 31.8746 9.99998 33.3294 10.0808 34.5134C10.1638 35.7309 10.339 36.8075 10.7612 37.8269C11.7761 40.2771 13.7229 42.2239 16.1732 43.2388C17.1926 43.6611 18.2691 43.8362 19.4866 43.9193C20.6706 44 22.1254 44 23.929 44L25.3475 44.0001C27.802 44.001 29.478 44.0016 30.9028 43.5694C34.0989 42.5999 36.5999 40.0989 37.5694 36.9029C38.0016 35.4781 38.001 33.802 38.0001 31.3475L38 31C38 29.8954 37.1046 29 36 29C34.8954 29 34 29.8954 34 31C34 33.9367 33.9783 34.9616 33.7416 35.7417C33.1599 37.6593 31.6593 39.16 29.7417 39.7417C28.9616 39.9783 27.9366 40 25 40H24C22.1089 40 20.7907 39.9989 19.7589 39.9285C18.7451 39.8594 18.1547 39.73 17.7039 39.5433C16.2337 38.9343 15.0657 37.7663 14.4567 36.2961C14.27 35.8454 14.1407 35.2549 14.0715 34.2411C14.0011 33.2093 14 31.8911 14 30V18C14 16.1089 14.0011 14.7907 14.0715 13.7589C14.1407 12.7451 14.27 12.1547 14.4567 11.7039Z" fill="#64748B"/>
<path d="M43.4142 17.4142C44.1953 16.6332 44.1953 15.3669 43.4142 14.5858C42.6332 13.8048 41.3668 13.8048 40.5858 14.5858L30.5858 24.5858C28.8359 26.3357 28.2901 26.8441 27.7761 27.0988C26.657 27.6534 25.343 27.6534 24.2239 27.0988C23.7099 26.8441 23.1641 26.3357 21.4142 24.5858C20.6332 23.8048 19.3668 23.8048 18.5858 24.5858C17.8047 25.3669 17.8047 26.6332 18.5858 27.4142L18.8275 27.6562C20.225 29.0555 21.2646 30.0965 22.4479 30.6829C24.6861 31.792 27.3139 31.792 29.5521 30.6829C30.7354 30.0965 31.775 29.0555 33.1725 27.6562L43.4142 17.4142Z" fill="#64748B"/>
</svg>
