<svg width="48" height="48" viewBox="0 0 48 48" fill="none" xmlns="http://www.w3.org/2000/svg">
<path fill-rule="evenodd" clip-rule="evenodd" d="M26.0619 44.5712C24.7023 44.8576 23.298 44.8576 21.9385 44.5712C20.3969 44.2463 18.9804 43.4362 16.9311 42.2642L15.1791 41.263C13.099 40.0754 11.6613 39.2546 10.5896 38.0719C9.64462 37.0289 8.93043 35.7982 8.49373 34.4603C7.9985 32.943 7.99915 31.2875 8.00008 28.8923L8.00016 18.7144C8.00014 16.5468 8.00013 14.7985 8.1158 13.3828C8.2349 11.9251 8.48652 10.6447 9.0901 9.4601C10.0488 7.57848 11.5786 6.04867 13.4603 5.08994C14.6448 4.48636 15.9252 4.23473 17.3829 4.11564C18.7986 3.99997 20.5468 3.99998 22.7143 4H25.2858C27.4533 3.99998 29.2017 3.99997 30.6174 4.11564C32.0751 4.23473 33.3555 4.48636 34.5401 5.08994C36.4217 6.04867 37.9515 7.57848 38.9102 9.4601C39.5138 10.6447 39.7654 11.9251 39.8845 13.3828C40.0002 14.7985 40.0002 16.5468 40.0002 18.7144L40.0002 28.8923C40.0012 31.2875 40.0018 32.943 39.5066 34.4603C39.0699 35.7982 38.3557 37.0289 37.4107 38.0719C36.3391 39.2546 34.9014 40.0754 32.8213 41.263L31.0692 42.2642C29.0199 43.4362 27.6034 44.2463 26.0619 44.5712ZM16.0001 24C16.0001 22.8954 16.8956 22 18.0001 22H22.0001V18C22.0001 16.8954 22.8956 16 24.0001 16C25.1047 16 26.0001 16.8954 26.0001 18V22H30.0001C31.1047 22 32.0001 22.8954 32.0001 24C32.0001 25.1046 31.1047 26 30.0001 26H26.0001V30C26.0001 31.1046 25.1047 32 24.0001 32C22.8956 32 22.0001 31.1046 22.0001 30V26H18.0001C16.8956 26 16.0001 25.1046 16.0001 24Z" fill="#7250E2"/>
</svg>
