<svg width="174" height="39" viewBox="0 0 174 39" fill="none" xmlns="http://www.w3.org/2000/svg">
<g clip-path="url(#clip0_7_39)">
<path d="M24.737 10.9432C24.737 11.2653 24.5146 11.3927 24.3576 11.5523C23.3313 12.5991 22.3094 13.6488 21.2598 14.6707C19.8614 16.0353 17.6867 16.0982 16.2985 14.7322C13.7148 12.1945 11.1632 9.62312 8.64349 7.01805C7.39188 5.72528 7.52853 3.70633 8.85572 2.42088C10.1538 1.16178 11.9346 1.19545 13.2414 2.50726C15.528 4.81609 17.5864 7.34893 20.0649 9.46305C21.1188 10.3634 22.1815 11.2858 23.7194 11.1087C24.0552 11.0706 24.3954 11.0003 24.737 10.9432Z" fill="#1CABA5"/>
<path d="M24.3213 9.44109C26.3524 9.44109 27.999 7.78271 27.999 5.73699C27.999 3.69128 26.3524 2.0329 24.3213 2.0329C22.2901 2.0329 20.6435 3.69128 20.6435 5.73699C20.6435 7.78271 22.2901 9.44109 24.3213 9.44109Z" fill="#1CABA5"/>
<path d="M11.561 36.4795C13.5922 36.4795 15.2388 34.8212 15.2388 32.7754C15.2388 30.7297 13.5922 29.0714 11.561 29.0714C9.52983 29.0714 7.88324 30.7297 7.88324 32.7754C7.88324 34.8212 9.52983 36.4795 11.561 36.4795Z" fill="#1CABA5"/>
<path d="M31.5053 29.5735C33.5365 29.5735 35.1831 27.9152 35.1831 25.8694C35.1831 23.8237 33.5365 22.1653 31.5053 22.1653C29.4741 22.1653 27.8275 23.8237 27.8275 25.8694C27.8275 27.9152 29.4741 29.5735 31.5053 29.5735Z" fill="#1CABA5"/>
<path d="M4.28831 16.517C6.31948 16.517 7.96608 14.8586 7.96608 12.8129C7.96608 10.7671 6.31948 9.10876 4.28831 9.10876C2.25713 9.10876 0.610535 10.7671 0.610535 12.8129C0.610535 14.8586 2.25713 16.517 4.28831 16.517Z" fill="#1CABA5"/>
<path d="M9.85879 12.6782C10.1771 12.6782 10.2949 12.9168 10.4504 13.0808C11.452 14.1496 12.4579 15.2154 13.4348 16.3017C14.7431 17.7585 14.7242 19.9487 13.3214 21.2986C10.7116 23.809 8.0703 26.2862 5.39749 28.7302C4.07175 29.9469 2.07297 29.7375 0.843166 28.3569C-0.360468 27.0041 -0.264527 25.2135 1.08302 23.9456C3.44813 21.7188 6.04001 19.7423 8.22632 17.3222C9.15522 16.2973 10.1088 15.2549 9.98671 13.7015C9.95764 13.3677 9.90095 13.0295 9.85879 12.6782Z" fill="#1CABA5"/>
<path d="M11.561 27.8942C11.561 27.5736 11.7877 27.4477 11.9462 27.2896C12.9841 26.2559 14.0191 25.2179 15.0803 24.2077C16.4947 22.8608 18.6694 22.8241 20.0417 24.2077C22.5962 26.7766 25.1159 29.3783 27.6007 32.0126C28.8378 33.3186 28.6779 35.3361 27.3361 36.6069C26.0278 37.8499 24.2413 37.7957 22.9504 36.4678C20.6856 34.1399 18.6621 31.5764 16.2083 29.433C15.1646 28.5208 14.1136 27.5838 12.5742 27.7434C12.2427 27.7756 11.9084 27.8415 11.561 27.8942Z" fill="#1CABA5"/>
<path d="M26.0468 25.9455C25.7284 25.9455 25.6107 25.7025 25.4581 25.5371C24.4637 24.461 23.4651 23.3878 22.4955 22.2898C21.2017 20.8257 21.2323 18.6296 22.6409 17.2944C25.2671 14.8025 27.9259 12.3439 30.6171 9.91838C31.9516 8.71199 33.9489 8.93453 35.1685 10.3254C36.362 11.6855 36.2544 13.4761 34.8967 14.7352C32.517 16.943 29.9106 18.9019 27.7083 21.3074C26.7707 22.3322 25.8098 23.3571 25.9203 24.9148C25.9494 25.2545 26.0046 25.5927 26.0468 25.9455Z" fill="#1CABA5"/>
</g>
<path d="M67.24 9.456V29H63.32V16.288L58.084 29H55.116L49.852 16.288V29H45.932V9.456H50.384L56.6 23.988L62.816 9.456H67.24ZM84.4156 20.908C84.4156 21.468 84.3783 21.972 84.3036 22.42H72.9636C73.0569 23.54 73.4489 24.4173 74.1396 25.052C74.8303 25.6867 75.6796 26.004 76.6876 26.004C78.1436 26.004 79.1796 25.3787 79.7956 24.128H84.0236C83.5756 25.6213 82.7169 26.8533 81.4476 27.824C80.1783 28.776 78.6196 29.252 76.7716 29.252C75.2783 29.252 73.9343 28.9253 72.7396 28.272C71.5636 27.6 70.6396 26.6573 69.9676 25.444C69.3143 24.2307 68.9876 22.8307 68.9876 21.244C68.9876 19.6387 69.3143 18.2293 69.9676 17.016C70.6209 15.8027 71.5356 14.8693 72.7116 14.216C73.8876 13.5627 75.2409 13.236 76.7716 13.236C78.2463 13.236 79.5623 13.5533 80.7196 14.188C81.8956 14.8227 82.8009 15.728 83.4356 16.904C84.0889 18.0613 84.4156 19.396 84.4156 20.908ZM80.3556 19.788C80.3369 18.78 79.9729 17.9773 79.2636 17.38C78.5543 16.764 77.6863 16.456 76.6596 16.456C75.6889 16.456 74.8676 16.7547 74.1956 17.352C73.5423 17.9307 73.1409 18.7427 72.9916 19.788H80.3556ZM85.1488 21.188C85.1488 19.62 85.4568 18.2293 86.0728 17.016C86.7075 15.8027 87.5662 14.8693 88.6488 14.216C89.7315 13.5627 90.9355 13.236 92.2608 13.236C93.2688 13.236 94.2302 13.46 95.1448 13.908C96.0595 14.3373 96.7875 14.916 97.3288 15.644V8.28H101.305V29H97.3288V26.704C96.8435 27.4693 96.1622 28.0853 95.2848 28.552C94.4075 29.0187 93.3902 29.252 92.2328 29.252C90.9262 29.252 89.7315 28.916 88.6488 28.244C87.5662 27.572 86.7075 26.6293 86.0728 25.416C85.4568 24.184 85.1488 22.7747 85.1488 21.188ZM97.3568 21.244C97.3568 20.292 97.1702 19.48 96.7968 18.808C96.4235 18.1173 95.9195 17.5947 95.2848 17.24C94.6502 16.8667 93.9688 16.68 93.2408 16.68C92.5128 16.68 91.8408 16.8573 91.2248 17.212C90.6088 17.5667 90.1048 18.0893 89.7128 18.78C89.3395 19.452 89.1528 20.2547 89.1528 21.188C89.1528 22.1213 89.3395 22.9427 89.7128 23.652C90.1048 24.3427 90.6088 24.8747 91.2248 25.248C91.8595 25.6213 92.5315 25.808 93.2408 25.808C93.9688 25.808 94.6502 25.6307 95.2848 25.276C95.9195 24.9027 96.4235 24.38 96.7968 23.708C97.1702 23.0173 97.3568 22.196 97.3568 21.244ZM106.001 11.64C105.311 11.64 104.732 11.4253 104.265 10.996C103.817 10.548 103.593 9.99733 103.593 9.344C103.593 8.69067 103.817 8.14933 104.265 7.72C104.732 7.272 105.311 7.048 106.001 7.048C106.692 7.048 107.261 7.272 107.709 7.72C108.176 8.14933 108.409 8.69067 108.409 9.344C108.409 9.99733 108.176 10.548 107.709 10.996C107.261 11.4253 106.692 11.64 106.001 11.64ZM107.933 13.488V29H104.013V13.488H107.933ZM109.958 19.228C109.958 17.324 110.388 15.616 111.246 14.104C112.105 12.5733 113.272 11.3787 114.746 10.52C116.24 9.66133 117.892 9.232 119.702 9.232C121.83 9.232 123.688 9.74533 125.274 10.772C126.861 11.7987 128.018 13.2547 128.746 15.14H125.694C125.153 13.964 124.369 13.0587 123.342 12.424C122.334 11.7893 121.121 11.472 119.702 11.472C118.34 11.472 117.117 11.7893 116.034 12.424C114.952 13.0587 114.102 13.964 113.486 15.14C112.87 16.2973 112.562 17.66 112.562 19.228C112.562 20.7773 112.87 22.14 113.486 23.316C114.102 24.4733 114.952 25.3693 116.034 26.004C117.117 26.6387 118.34 26.956 119.702 26.956C121.121 26.956 122.334 26.648 123.342 26.032C124.369 25.3973 125.153 24.492 125.694 23.316H128.746C128.018 25.1827 126.861 26.6293 125.274 27.656C123.688 28.664 121.83 29.168 119.702 29.168C117.892 29.168 116.24 28.748 114.746 27.908C113.272 27.0493 112.105 25.864 111.246 24.352C110.388 22.84 109.958 21.132 109.958 19.228ZM130.467 21.272C130.467 19.704 130.785 18.332 131.419 17.156C132.054 15.9613 132.922 15.0373 134.023 14.384C135.143 13.7307 136.385 13.404 137.747 13.404C139.091 13.404 140.258 13.6933 141.247 14.272C142.237 14.8507 142.974 15.5787 143.459 16.456V13.656H146.035V29H143.459V26.144C142.955 27.04 142.199 27.7867 141.191 28.384C140.202 28.9627 139.045 29.252 137.719 29.252C136.357 29.252 135.125 28.916 134.023 28.244C132.922 27.572 132.054 26.6293 131.419 25.416C130.785 24.2027 130.467 22.8213 130.467 21.272ZM143.459 21.3C143.459 20.1427 143.226 19.1347 142.759 18.276C142.293 17.4173 141.658 16.764 140.855 16.316C140.071 15.8493 139.203 15.616 138.251 15.616C137.299 15.616 136.431 15.84 135.647 16.288C134.863 16.736 134.238 17.3893 133.771 18.248C133.305 19.1067 133.071 20.1147 133.071 21.272C133.071 22.448 133.305 23.4747 133.771 24.352C134.238 25.2107 134.863 25.8733 135.647 26.34C136.431 26.788 137.299 27.012 138.251 27.012C139.203 27.012 140.071 26.788 140.855 26.34C141.658 25.8733 142.293 25.2107 142.759 24.352C143.226 23.4747 143.459 22.4573 143.459 21.3ZM151.769 16.148C152.217 15.2707 152.852 14.5893 153.673 14.104C154.513 13.6187 155.53 13.376 156.725 13.376V16.008H156.053C153.197 16.008 151.769 17.5573 151.769 20.656V29H149.221V13.656H151.769V16.148ZM172.546 20.74C172.546 21.2253 172.518 21.7387 172.462 22.28H160.198C160.292 23.792 160.805 24.9773 161.738 25.836C162.69 26.676 163.838 27.096 165.182 27.096C166.284 27.096 167.198 26.844 167.926 26.34C168.673 25.8173 169.196 25.1267 169.494 24.268H172.238C171.828 25.7427 171.006 26.9467 169.774 27.88C168.542 28.7947 167.012 29.252 165.182 29.252C163.726 29.252 162.42 28.9253 161.262 28.272C160.124 27.6187 159.228 26.6947 158.574 25.5C157.921 24.2867 157.594 22.8867 157.594 21.3C157.594 19.7133 157.912 18.3227 158.546 17.128C159.181 15.9333 160.068 15.0187 161.206 14.384C162.364 13.7307 163.689 13.404 165.182 13.404C166.638 13.404 167.926 13.7213 169.046 14.356C170.166 14.9907 171.025 15.868 171.622 16.988C172.238 18.0893 172.546 19.34 172.546 20.74ZM169.914 20.208C169.914 19.2373 169.7 18.4067 169.27 17.716C168.841 17.0067 168.253 16.4747 167.506 16.12C166.778 15.7467 165.966 15.56 165.07 15.56C163.782 15.56 162.681 15.9707 161.766 16.792C160.87 17.6133 160.357 18.752 160.226 20.208H169.914Z" fill="white"/>
<defs>
<clipPath id="clip0_7_39">
<rect width="36" height="36" fill="white" transform="translate(0 1.5)"/>
</clipPath>
</defs>
</svg>
