<svg width="174" height="40" viewBox="0 0 174 40" fill="none" xmlns="http://www.w3.org/2000/svg">
<g clip-path="url(#clip0_1_313)">
<path d="M24.737 11.4433C24.737 11.7654 24.5146 11.8928 24.3576 12.0523C23.3313 13.0991 22.3094 14.1489 21.2598 15.1708C19.8614 16.5353 17.6867 16.5983 16.2985 15.2323C13.7148 12.6946 11.1632 10.1232 8.64349 7.51811C7.39188 6.22534 7.52853 4.20639 8.85572 2.92094C10.1538 1.66184 11.9346 1.69551 13.2414 3.00732C15.528 5.31615 17.5864 7.84899 20.0649 9.96311C21.1188 10.8635 22.1815 11.7859 23.7194 11.6087C24.0552 11.5707 24.3954 11.5004 24.737 11.4433Z" fill="#1CABA5"/>
<path d="M24.3213 9.94115C26.3524 9.94115 27.999 8.28277 27.999 6.23705C27.999 4.19134 26.3524 2.53296 24.3213 2.53296C22.2901 2.53296 20.6435 4.19134 20.6435 6.23705C20.6435 8.28277 22.2901 9.94115 24.3213 9.94115Z" fill="#1CABA5"/>
<path d="M11.561 36.9796C13.5922 36.9796 15.2388 35.3212 15.2388 33.2755C15.2388 31.2298 13.5922 29.5714 11.561 29.5714C9.52983 29.5714 7.88324 31.2298 7.88324 33.2755C7.88324 35.3212 9.52983 36.9796 11.561 36.9796Z" fill="#1CABA5"/>
<path d="M31.5053 30.0735C33.5365 30.0735 35.1831 28.4151 35.1831 26.3694C35.1831 24.3237 33.5365 22.6653 31.5053 22.6653C29.4741 22.6653 27.8275 24.3237 27.8275 26.3694C27.8275 28.4151 29.4741 30.0735 31.5053 30.0735Z" fill="#1CABA5"/>
<path d="M4.28831 17.017C6.31948 17.017 7.96608 15.3586 7.96608 13.3129C7.96608 11.2671 6.31948 9.60876 4.28831 9.60876C2.25713 9.60876 0.610535 11.2671 0.610535 13.3129C0.610535 15.3586 2.25713 17.017 4.28831 17.017Z" fill="#1CABA5"/>
<path d="M9.85879 13.1782C10.1771 13.1782 10.2949 13.4169 10.4504 13.5808C11.452 14.6496 12.4579 15.7155 13.4348 16.8018C14.7431 18.2585 14.7242 20.4488 13.3214 21.7987C10.7116 24.309 8.0703 26.7863 5.39749 29.2303C4.07175 30.4469 2.07297 30.2376 0.843166 28.8569C-0.360468 27.5041 -0.264527 25.7136 1.08302 24.4457C3.44813 22.2188 6.04001 20.2424 8.22632 17.8223C9.15522 16.7974 10.1088 15.755 9.98671 14.2016C9.95764 13.8678 9.90095 13.5296 9.85879 13.1782Z" fill="#1CABA5"/>
<path d="M11.561 28.3942C11.561 28.0736 11.7877 27.9477 11.9462 27.7896C12.9841 26.7559 14.0191 25.7179 15.0803 24.7077C16.4947 23.3608 18.6694 23.3241 20.0417 24.7077C22.5962 27.2766 25.1159 29.8783 27.6007 32.5126C28.8378 33.8186 28.6779 35.8361 27.3361 37.1069C26.0278 38.3499 24.2413 38.2957 22.9504 36.9678C20.6856 34.6399 18.6621 32.0764 16.2083 29.933C15.1646 29.0208 14.1136 28.0838 12.5742 28.2434C12.2427 28.2756 11.9084 28.3415 11.561 28.3942Z" fill="#1CABA5"/>
<path d="M26.0468 26.4455C25.7284 26.4455 25.6107 26.2025 25.4581 26.0371C24.4637 24.961 23.4651 23.8878 22.4955 22.7898C21.2017 21.3257 21.2323 19.1296 22.6409 17.7944C25.2671 15.3025 27.9259 12.8439 30.6171 10.4184C31.9516 9.21199 33.9489 9.43453 35.1685 10.8254C36.362 12.1855 36.2544 13.9761 34.8967 15.2352C32.517 17.443 29.9106 19.4019 27.7083 21.8074C26.7707 22.8322 25.8098 23.8571 25.9203 25.4148C25.9494 25.7545 26.0046 26.0927 26.0468 26.4455Z" fill="#1CABA5"/>
</g>
<path d="M67.24 9.956V29.5H63.32V16.788L58.084 29.5H55.116L49.852 16.788V29.5H45.932V9.956H50.384L56.6 24.488L62.816 9.956H67.24ZM84.4156 21.408C84.4156 21.968 84.3783 22.472 84.3036 22.92H72.9636C73.0569 24.04 73.4489 24.9173 74.1396 25.552C74.8303 26.1867 75.6796 26.504 76.6876 26.504C78.1436 26.504 79.1796 25.8787 79.7956 24.628H84.0236C83.5756 26.1213 82.7169 27.3533 81.4476 28.324C80.1783 29.276 78.6196 29.752 76.7716 29.752C75.2783 29.752 73.9343 29.4253 72.7396 28.772C71.5636 28.1 70.6396 27.1573 69.9676 25.944C69.3143 24.7307 68.9876 23.3307 68.9876 21.744C68.9876 20.1387 69.3143 18.7293 69.9676 17.516C70.6209 16.3027 71.5356 15.3693 72.7116 14.716C73.8876 14.0627 75.2409 13.736 76.7716 13.736C78.2463 13.736 79.5623 14.0533 80.7196 14.688C81.8956 15.3227 82.8009 16.228 83.4356 17.404C84.0889 18.5613 84.4156 19.896 84.4156 21.408ZM80.3556 20.288C80.3369 19.28 79.9729 18.4773 79.2636 17.88C78.5543 17.264 77.6863 16.956 76.6596 16.956C75.6889 16.956 74.8676 17.2547 74.1956 17.852C73.5423 18.4307 73.1409 19.2427 72.9916 20.288H80.3556ZM85.1488 21.688C85.1488 20.12 85.4568 18.7293 86.0728 17.516C86.7075 16.3027 87.5662 15.3693 88.6488 14.716C89.7315 14.0627 90.9355 13.736 92.2608 13.736C93.2688 13.736 94.2302 13.96 95.1448 14.408C96.0595 14.8373 96.7875 15.416 97.3288 16.144V8.78H101.305V29.5H97.3288V27.204C96.8435 27.9693 96.1622 28.5853 95.2848 29.052C94.4075 29.5187 93.3902 29.752 92.2328 29.752C90.9262 29.752 89.7315 29.416 88.6488 28.744C87.5662 28.072 86.7075 27.1293 86.0728 25.916C85.4568 24.684 85.1488 23.2747 85.1488 21.688ZM97.3568 21.744C97.3568 20.792 97.1702 19.98 96.7968 19.308C96.4235 18.6173 95.9195 18.0947 95.2848 17.74C94.6502 17.3667 93.9688 17.18 93.2408 17.18C92.5128 17.18 91.8408 17.3573 91.2248 17.712C90.6088 18.0667 90.1048 18.5893 89.7128 19.28C89.3395 19.952 89.1528 20.7547 89.1528 21.688C89.1528 22.6213 89.3395 23.4427 89.7128 24.152C90.1048 24.8427 90.6088 25.3747 91.2248 25.748C91.8595 26.1213 92.5315 26.308 93.2408 26.308C93.9688 26.308 94.6502 26.1307 95.2848 25.776C95.9195 25.4027 96.4235 24.88 96.7968 24.208C97.1702 23.5173 97.3568 22.696 97.3568 21.744ZM106.001 12.14C105.311 12.14 104.732 11.9253 104.265 11.496C103.817 11.048 103.593 10.4973 103.593 9.844C103.593 9.19067 103.817 8.64933 104.265 8.22C104.732 7.772 105.311 7.548 106.001 7.548C106.692 7.548 107.261 7.772 107.709 8.22C108.176 8.64933 108.409 9.19067 108.409 9.844C108.409 10.4973 108.176 11.048 107.709 11.496C107.261 11.9253 106.692 12.14 106.001 12.14ZM107.933 13.988V29.5H104.013V13.988H107.933ZM109.958 19.728C109.958 17.824 110.388 16.116 111.246 14.604C112.105 13.0733 113.272 11.8787 114.746 11.02C116.24 10.1613 117.892 9.732 119.702 9.732C121.83 9.732 123.688 10.2453 125.274 11.272C126.861 12.2987 128.018 13.7547 128.746 15.64H125.694C125.153 14.464 124.369 13.5587 123.342 12.924C122.334 12.2893 121.121 11.972 119.702 11.972C118.34 11.972 117.117 12.2893 116.034 12.924C114.952 13.5587 114.102 14.464 113.486 15.64C112.87 16.7973 112.562 18.16 112.562 19.728C112.562 21.2773 112.87 22.64 113.486 23.816C114.102 24.9733 114.952 25.8693 116.034 26.504C117.117 27.1387 118.34 27.456 119.702 27.456C121.121 27.456 122.334 27.148 123.342 26.532C124.369 25.8973 125.153 24.992 125.694 23.816H128.746C128.018 25.6827 126.861 27.1293 125.274 28.156C123.688 29.164 121.83 29.668 119.702 29.668C117.892 29.668 116.24 29.248 114.746 28.408C113.272 27.5493 112.105 26.364 111.246 24.852C110.388 23.34 109.958 21.632 109.958 19.728ZM130.467 21.772C130.467 20.204 130.785 18.832 131.419 17.656C132.054 16.4613 132.922 15.5373 134.023 14.884C135.143 14.2307 136.385 13.904 137.747 13.904C139.091 13.904 140.258 14.1933 141.247 14.772C142.237 15.3507 142.974 16.0787 143.459 16.956V14.156H146.035V29.5H143.459V26.644C142.955 27.54 142.199 28.2867 141.191 28.884C140.202 29.4627 139.045 29.752 137.719 29.752C136.357 29.752 135.125 29.416 134.023 28.744C132.922 28.072 132.054 27.1293 131.419 25.916C130.785 24.7027 130.467 23.3213 130.467 21.772ZM143.459 21.8C143.459 20.6427 143.226 19.6347 142.759 18.776C142.293 17.9173 141.658 17.264 140.855 16.816C140.071 16.3493 139.203 16.116 138.251 16.116C137.299 16.116 136.431 16.34 135.647 16.788C134.863 17.236 134.238 17.8893 133.771 18.748C133.305 19.6067 133.071 20.6147 133.071 21.772C133.071 22.948 133.305 23.9747 133.771 24.852C134.238 25.7107 134.863 26.3733 135.647 26.84C136.431 27.288 137.299 27.512 138.251 27.512C139.203 27.512 140.071 27.288 140.855 26.84C141.658 26.3733 142.293 25.7107 142.759 24.852C143.226 23.9747 143.459 22.9573 143.459 21.8ZM151.769 16.648C152.217 15.7707 152.852 15.0893 153.673 14.604C154.513 14.1187 155.53 13.876 156.725 13.876V16.508H156.053C153.197 16.508 151.769 18.0573 151.769 21.156V29.5H149.221V14.156H151.769V16.648ZM172.546 21.24C172.546 21.7253 172.518 22.2387 172.462 22.78H160.198C160.292 24.292 160.805 25.4773 161.738 26.336C162.69 27.176 163.838 27.596 165.182 27.596C166.284 27.596 167.198 27.344 167.926 26.84C168.673 26.3173 169.196 25.6267 169.494 24.768H172.238C171.828 26.2427 171.006 27.4467 169.774 28.38C168.542 29.2947 167.012 29.752 165.182 29.752C163.726 29.752 162.42 29.4253 161.262 28.772C160.124 28.1187 159.228 27.1947 158.574 26C157.921 24.7867 157.594 23.3867 157.594 21.8C157.594 20.2133 157.912 18.8227 158.546 17.628C159.181 16.4333 160.068 15.5187 161.206 14.884C162.364 14.2307 163.689 13.904 165.182 13.904C166.638 13.904 167.926 14.2213 169.046 14.856C170.166 15.4907 171.025 16.368 171.622 17.488C172.238 18.5893 172.546 19.84 172.546 21.24ZM169.914 20.708C169.914 19.7373 169.7 18.9067 169.27 18.216C168.841 17.5067 168.253 16.9747 167.506 16.62C166.778 16.2467 165.966 16.06 165.07 16.06C163.782 16.06 162.681 16.4707 161.766 17.292C160.87 18.1133 160.357 19.252 160.226 20.708H169.914Z" fill="#0F172A"/>
<defs>
<clipPath id="clip0_1_313">
<rect width="36" height="36" fill="white" transform="translate(0 2)"/>
</clipPath>
</defs>
</svg>
