<svg width="23" height="23" viewBox="0 0 23 23" fill="none" xmlns="http://www.w3.org/2000/svg">
<path d="M11.8364 17.6695L16.8743 20.8682C17.524 21.278 18.3237 20.6683 18.1338 19.9186L16.6744 14.1809C16.6349 14.0219 16.6412 13.8549 16.6925 13.6993C16.7438 13.5437 16.838 13.4057 16.9643 13.3013L21.4824 9.5328C22.0722 9.043 21.7723 8.0534 21.0026 8.00342L15.105 7.62357C14.9441 7.61421 14.7894 7.55818 14.6598 7.46232C14.5302 7.36646 14.4314 7.23493 14.3753 7.08379L12.1762 1.54605C12.118 1.38602 12.012 1.24778 11.8725 1.15009C11.733 1.0524 11.5668 1 11.3965 1C11.2262 1 11.0601 1.0524 10.9206 1.15009C10.7811 1.24778 10.6751 1.38602 10.6169 1.54605L8.41775 7.08379C8.36171 7.23493 8.26285 7.36646 8.13326 7.46232C8.00367 7.55818 7.84897 7.61421 7.68805 7.62357L1.79045 8.00342C1.02077 8.0534 0.720891 9.043 1.31065 9.5328L5.82881 13.3013C5.95509 13.4057 6.0493 13.5437 6.10059 13.6993C6.15188 13.8549 6.15815 14.0219 6.11869 14.1809L4.76924 19.4987C4.53933 20.3984 5.49894 21.1281 6.26863 20.6383L10.9567 17.6695C11.0882 17.5859 11.2407 17.5415 11.3965 17.5415C11.5523 17.5415 11.7049 17.5859 11.8364 17.6695Z" fill="#F8D57E" stroke="#F8D57E" stroke-width="2" stroke-linecap="round" stroke-linejoin="round"/>
</svg>
