<svg width="72" height="72" viewBox="0 0 72 72" fill="none" xmlns="http://www.w3.org/2000/svg">
<rect width="72" height="72" rx="15" fill="#50BE9F" fill-opacity="0.2"/>
<path d="M52.6121 41.1266C52.6121 48.1949 45.6075 53.9248 35.9908 53.9248C26.3744 53.9248 19.3699 48.1953 19.3699 41.1266C19.3699 39.0367 18.352 35.4422 20.4689 35.3211C23.2725 35.1609 29.2177 35.1609 35.9904 35.1609C42.8272 35.1609 48.8879 35.1609 51.5926 35.4386C53.651 35.6499 52.6121 39.0833 52.6121 41.1266Z" fill="#FF889C"/>
<path d="M27.0451 34.401C23.745 33.44 20.3622 34.3586 20.2197 34.3978C19.7462 34.5295 19.4689 35.0197 19.6002 35.4936C19.732 35.9672 20.2225 36.2453 20.6961 36.1131C20.7257 36.1048 23.7284 35.2891 26.5478 36.11C26.6309 36.1345 26.7148 36.1456 26.7971 36.1456C27.1828 36.1456 27.538 35.8928 27.6512 35.5039C27.7884 35.0324 27.5171 34.5382 27.0451 34.401Z" fill="#50BE9F"/>
<path d="M51.9821 34.401C48.6808 33.4404 45.2983 34.3586 45.1567 34.3982C44.6836 34.5295 44.4066 35.0193 44.5376 35.4928C44.6681 35.966 45.1579 36.2429 45.6318 36.1139C45.6619 36.1052 48.6815 35.295 51.4848 36.1108C51.5679 36.1349 51.6517 36.1464 51.734 36.1464C52.1197 36.1464 52.475 35.8936 52.5881 35.5047C52.7254 35.0324 52.454 34.5382 51.9821 34.401Z" fill="#50BE9F"/>
<path d="M48.5584 24.7435C48.4749 22.5123 47.6022 21.2309 46.2679 20.3068C44.9244 19.4004 43.0243 18.976 41.1404 18.9807C39.3942 18.9756 37.6769 19.3439 36.5158 19.8661L36.0506 20.0722L35.5858 19.8661C34.6549 19.442 33.3557 19.1306 31.9763 19.0187L29.5975 19.0503C28.1935 19.209 26.8548 19.6184 25.8329 20.3103C24.4978 21.2305 23.6251 22.5142 23.5436 24.7403C23.5388 24.9195 23.5356 25.0841 23.5356 25.2324C23.5606 28.3803 24.2833 29.5133 25.1568 31.102C26.0584 32.6623 27.0921 34.6589 27.0632 38.3503C27.0632 42.6378 27.7892 45.1559 28.5792 46.4859C29.3847 47.8226 29.6537 48.0236 30.5311 48.0236C31.4552 48.0236 31.7757 47.0888 31.816 46.5951C31.9941 44.7804 31.6843 41.9424 32.58 38.916C32.8375 38.0773 33.1508 37.0302 33.779 36.0839C34.6248 34.8077 36.9114 33.8087 38.3229 36.0839C38.9211 37.0499 39.2645 38.0773 39.5192 38.916C40.206 41.2216 40.4054 43.6312 40.2448 45.4716C40.0193 48.0323 41.5198 48.0236 41.5689 48.0236C42.368 48.0236 42.7145 47.8226 43.5156 46.4859C44.3096 45.1559 45.0367 42.6375 45.0348 38.3503C45.0091 34.6494 46.044 32.6623 46.9471 31.0989C47.821 29.5129 48.5347 28.3803 48.5632 25.2324C48.5636 25.0797 48.5608 24.9167 48.5584 24.7435Z" fill="#F4F2E8"/>
<path d="M49.4498 24.819L49.4478 24.7102C49.3619 22.4102 48.5126 20.7787 46.7656 19.569C45.3529 18.6156 43.3666 18.091 41.1737 18.091H41.1053C39.3449 18.091 37.4922 18.4514 36.1547 19.0531L36.0507 19.0994L35.9549 19.0563C34.9085 18.5792 33.5212 18.2508 32.0483 18.1317C32.0206 18.1294 31.9914 18.1294 31.9649 18.129L29.5861 18.1606C29.5564 18.161 29.5271 18.163 29.4979 18.1662C27.8601 18.3513 26.4205 18.8379 25.3282 19.5777C23.5883 20.7767 22.7386 22.407 22.6543 24.7178C22.6492 24.9053 22.646 25.0778 22.646 25.24C22.6713 28.4471 23.3984 29.7621 24.2411 31.2848L24.3867 31.5483C25.3052 33.1378 26.1997 34.9718 26.174 38.3511C26.174 43.168 27.0661 45.6812 27.8177 46.9464C28.6426 48.3152 29.1485 48.9149 30.532 48.9149C31.8367 48.9149 32.6125 47.7854 32.7027 46.6829C32.7588 46.1105 32.7691 45.4522 32.7806 44.7551C32.8059 43.1644 32.838 41.1852 33.4318 39.1783L33.45 39.1189C33.6984 38.3099 33.9797 37.3937 34.522 36.5764C34.8377 36.0997 35.5103 35.6178 36.184 35.6178C36.7165 35.6178 37.1821 35.9327 37.5674 36.5534C38.0932 37.4024 38.4077 38.3159 38.6676 39.1712C39.2657 41.1789 39.5245 43.5058 39.3595 45.3944C39.2495 46.6429 39.4841 47.5936 40.0581 48.2202C40.6484 48.8647 41.364 48.9149 41.5689 48.9149H41.5701C42.8788 48.9149 43.4635 48.3073 44.2812 46.9436C45.0329 45.684 45.9285 43.1715 45.9261 38.3455C45.9024 34.9754 46.7988 33.1382 47.7281 31.5297L47.8519 31.3062C48.6961 29.7815 49.4256 28.4641 49.4549 25.2336C49.4537 25.1023 49.4518 24.9642 49.4498 24.819ZM46.2936 30.4429L46.1769 30.6542C45.1796 32.3798 44.1186 34.5406 44.1451 38.3515C44.1471 42.9982 43.2732 45.1574 42.7526 46.029C42.0959 47.1252 41.9713 47.1343 41.5792 47.1343C41.5515 47.1311 41.4503 47.1125 41.3573 47.0033C41.2612 46.8894 41.0463 46.5203 41.1318 45.5495C41.3181 43.4172 41.0412 40.9071 40.3711 38.6577C40.089 37.7288 39.7147 36.6413 39.0794 35.6151C38.3677 34.4686 37.3395 33.8372 36.1828 33.8372C34.8132 33.8372 33.6161 34.719 33.0373 35.5921C32.3525 36.6239 32.0167 37.7173 31.7469 38.596L31.7259 38.664C31.0605 40.913 31.0265 43.0271 30.9996 44.7262C30.9885 45.4142 30.979 46.0088 30.9288 46.5227C30.9284 46.529 30.8583 47.1343 30.5312 47.1343C30.0584 47.1343 30.009 47.1343 29.3448 46.0321C28.8253 45.1574 27.9534 42.9963 27.9534 38.3582C27.9831 34.5386 26.9233 32.3806 25.9366 30.674L25.7982 30.4232C25.0141 29.0057 24.4472 27.9815 24.4258 25.2332C24.4258 25.092 24.429 24.9349 24.4329 24.7735C24.4966 23.0356 25.0663 21.9204 26.3318 21.0481C27.1717 20.4793 28.3194 20.0967 29.6541 19.9404L31.9451 19.91C33.1841 20.014 34.3745 20.2929 35.2242 20.6802L35.6602 20.8737L38.8219 22.551C38.9548 22.6214 39.0976 22.6551 39.2384 22.6551C39.5573 22.6551 39.8659 22.483 40.0253 22.1819C40.2559 21.7476 40.0906 21.2087 39.6562 20.9785L38.2352 20.2241C39.13 20.0006 40.1412 19.8712 41.1053 19.8712H41.1737C42.9888 19.8712 44.6642 20.2993 45.7612 21.0386C47.0334 21.9196 47.6039 23.0376 47.6684 24.7557L47.6696 24.8444C47.6715 24.9808 47.6735 25.1106 47.6735 25.2253C47.6482 27.9961 47.0801 29.0223 46.2936 30.4429Z" fill="#475569"/>
<path d="M42.1739 30.6502C42.005 30.1391 40.8454 27.2587 36.101 26.9909C31.9321 26.7599 30.2152 29.8931 29.8821 31.6116C26.4727 45.2765 30.9367 49.8011 31.1282 49.9874C31.4783 50.3264 32.0318 50.3169 32.3752 49.972C32.7189 49.6266 32.7166 49.0648 32.3752 48.7171C32.3403 48.6815 29.3009 45.4296 30.8121 35.9244C30.839 35.8695 30.8624 35.8117 30.8782 35.75C30.915 35.6032 31.8102 32.1626 34.6807 32.3691C35.1697 32.4048 35.5973 32.036 35.6326 31.5455C35.6678 31.055 35.2991 30.6289 34.8089 30.5937C33.6003 30.5047 32.607 30.839 31.8007 31.3793C32.1679 30.4121 33.2273 28.6129 35.9997 28.7688C39.7579 28.9808 40.4542 31.1139 40.4779 31.1918C40.4882 31.2302 40.5021 31.2686 40.5175 31.3054C40.5206 31.3125 40.5499 31.3849 40.5962 31.5099C39.7453 30.9909 38.6791 30.6669 37.3653 30.7519C36.8748 30.7844 36.5033 31.208 36.5357 31.699C36.5682 32.1895 36.9847 32.561 37.4828 32.5286C40.6002 32.3189 41.465 35.3568 41.501 35.4877C41.5235 35.5708 41.5587 35.6467 41.6018 35.7171C42.0655 39.0299 42.0449 43.8567 39.6642 48.9735C39.4569 49.4193 39.6499 49.9486 40.0958 50.1559C40.2172 50.2125 40.345 50.2394 40.4708 50.2394C40.8063 50.2394 41.1271 50.0487 41.2782 49.7243C45.821 39.9628 42.4852 31.4035 42.1739 30.6502Z" fill="#50BE9F"/>
<path d="M44.8224 27.6017C44.7532 27.6017 44.6831 27.5926 44.6135 27.5736C44.1922 27.4581 43.9438 27.0233 44.0593 26.6016C44.8113 23.8494 42.986 23.1045 42.7755 23.0285C42.3677 22.8814 42.1501 22.4316 42.2929 22.0221C42.4353 21.6123 42.8768 21.3927 43.289 21.5316C44.4913 21.9371 46.5187 23.6061 45.5855 27.019C45.489 27.3707 45.1701 27.6017 44.8224 27.6017Z" fill="white"/>
</svg>
